<svg width="96" height="96" viewBox="0 0 96 96" xmlns="http://www.w3.org/2000/svg">
  <defs>
    <linearGradient id="grad1" x1="0%" y1="0%" x2="100%" y2="100%">
      <stop offset="0%" style="stop-color:#667eea;stop-opacity:1" />
      <stop offset="100%" style="stop-color:#764ba2;stop-opacity:1" />
    </linearGradient>
    <linearGradient id="grad2" x1="0%" y1="0%" x2="100%" y2="100%">
      <stop offset="0%" style="stop-color:#f093fb;stop-opacity:1" />
      <stop offset="100%" style="stop-color:#f5576c;stop-opacity:1" />
    </linearGradient>
  </defs>
  
  <!-- Background circle with gradient -->
  <circle cx="48" cy="48" r="44" fill="url(#grad1)" stroke="url(#grad2)" stroke-width="2"/>
  
  <!-- Main chat bubble -->
  <path d="M30 28 L58 28 Q66 28 66 36 L66 52 Q66 60 58 60 L42 60 L36 66 L36 60 L30 60 Q22 60 22 52 L22 36 Q22 28 30 28 Z" 
        fill="white" opacity="0.95"/>
  
  <!-- Secondary chat bubble -->
  <path d="M38 38 L50 38 Q54 38 54 42 L54 48 Q54 52 50 52 L44 52 L40 56 L40 52 L38 52 Q34 52 34 48 L34 42 Q34 38 38 38 Z" 
        fill="url(#grad2)" opacity="0.8"/>
  
  <!-- AI indicator -->
  <circle cx="72" cy="24" r="8" fill="url(#grad2)"/>
  <text x="72" y="28" text-anchor="middle" fill="white" font-family="Arial, sans-serif" font-size="10" font-weight="bold">AI</text>
  
  <!-- Pro badge -->
  <rect x="60" y="60" width="24" height="16" rx="8" fill="url(#grad2)"/>
  <text x="72" y="71" text-anchor="middle" fill="white" font-family="Arial, sans-serif" font-size="8" font-weight="bold">PRO</text>
</svg>
